# AST/ASF file generated using VICON BodyLanguage
# -----------------------------------------------
:version 1.10
:name VICON
:units
  mass 1.0
  length 0.45
  angle deg
:documentation
   .ast/.asf automatically generated from VICON data using
   VICON BodyBuilder and BodyLanguage model FoxedUp or BRILLIANT.MOD
:root
   order TX TY TZ RX RY RZ
   axis XYZ
   position 0 0 0  
   orientation 0 0 0 
:bonedata
  begin
     id 1 
     name lhipjoint
     direction 0.623415 -0.642378 0.445763 
     length 2.49859 
     axis 0 0 0  XYZ
  end
  begin
     id 2 
     name lfemur
     direction 0.34202 -0.939693 0  
     length 6.69689  
     axis 0 0 20  XYZ
    dof rx ry rz
    limits (-160.0 20.0)
           (-70.0 70.0)
           (-60.0 70.0)
  end
  begin
     id 3 
     name ltibia
     direction 0.34202 -0.939693 0   
     length 7.37574   
     axis 0 0 20   XYZ
    dof rx
    limits (-10.0 170.0)
  end
  begin
     id 4 
     name lfoot
     direction 0.084323 -0.231675 0.969132   
     length 2.09111   
     axis -90 7.62852e-016 20   XYZ
    dof rx rz
    limits (-45.0 90.0)
           (-70.0 20.0)
  end
  begin
     id 5 
     name ltoes
     direction 1.5357e-011 -4.21957e-011 1   
     length 1.04989   
     axis -90 7.62852e-016 20   XYZ
    dof rx
    limits (-90.0 20.0)
  end
  begin
     id 6 
     name rhipjoint
     direction -0.605402 -0.653903 0.45376   
     length 2.45455  
     axis 0 0 0  XYZ 
  end
  begin
     id 7 
     name rfemur
     direction -0.34202 -0.939693 0   
     length 6.64523   
     axis 0 0 -20   XYZ
    dof rx ry rz
    limits (-160.0 20.0)
           (-70.0 70.0)
           (-70.0 60.0)
  end
  begin
     id 8 
     name rtibia
     direction -0.34202 -0.939693 0   
     length 7.3339   
     axis 0 0 -20   XYZ
    dof rx
    limits (-10.0 170.0)
 end
 begin
     id 9 
     name rfoot
     direction -0.120854 -0.332043 0.93549   
     length 2.23135  
     axis -90 -7.62852e-016 -20   XYZ
    dof rx rz
    limits (-45.0 90.0)
           (-20.0 70.0)
  end
  begin
     id 10 
     name rtoes
     direction -1.53563e-011 -4.21914e-011 1   
     length 1.10614   
     axis -90 -7.62852e-016 -20   XYZ
    dof rx
    limits (-90.0 20.0)
  end
  begin
     id 11 
     name lowerback
     direction 0.0319682 0.998615 -0.0417941   
     length 2.02718   
     axis 0 0 0   XYZ
    dof rx ry rz
    limits (-20.0 45.0)
           (-30.0 30.0)
           (-30.0 30.0)
  end
  begin
     id 12 
     name upperback
     direction 7.63181e-005 0.995808 0.0914691   
     length 1.97539   
     axis 0 0 0   XYZ
    dof rx ry rz
    limits (-20.0 45.0)
           (-30.0 30.0)
           (-30.0 30.0)
  end
  begin
     id 13 
     name thorax
     direction -0.016423 0.993627 0.111514   
     length 2.00349   
     axis 0 0 0   XYZ
    dof rx ry rz
    limits (-20.0 45.0)
           (-30.0 30.0)
           (-30.0 30.0)
  end
  begin
     id 14 
     name lowerneck
     direction -0.174763 0.981668 -0.0760716   
     length 1.71436   
     axis 0 0 0   XYZ
    dof rx ry rz
    limits (-20.0 45.0)
           (-30.0 30.0)
           (-30.0 30.0)
  end
  begin
     id 15 
     name upperneck
     direction 0.345458 0.934587 -0.0848868   
     length 1.72805   
     axis 0 0 0   XYZ
    dof rx ry rz
    limits (-20.0 45.0)
           (-30.0 30.0)
           (-30.0 30.0)
  end
  begin
     id 16
     name head
     direction 0.13001 0.989848 -0.0574291  
     length 1.767  
     axis 0 0 0   XYZ
    dof rx ry rz
    limits (-20.0 45.0)
           (-30.0 30.0)
           (-30.0 30.0)
  end
  begin
     id 17 
     name lclavicle
     direction 0.952951 0.290122 0.0878234  
     length 3.54654  
     axis 0 0 0   XYZ
    dof ry rz
    limits (-20.0 10.0)
           (0.0 20.0)
  end
  begin
     id 18 
     name lhumerus
     direction 1 -4.48957e-011 -4.56525e-028   
     length 5.19807   
     axis 180 -30 -90   XYZ
    dof rx ry rz
    limits (-60.0 90.0)
           (-90.0 90.0)
           (-90.0 90.0)
  end
  begin
     id 19
     name lradius
     direction 1 -4.48979e-011 -2.0317e-027   
     length 3.0937   
     axis 180 -30 -90   XYZ
    dof rx
    limits (-10.0 170.0)
  end
  begin
     id 20
     name lwrist
     direction 1 -4.48953e-011 -3.05809e-027   
     length 1.54685   
     axis 8.48514e-016 90 90   XYZ
    dof ry
    limits (-180.0 0.0)
 end
  begin
     id 21 
     name lhand
     direction 1 -4.48952e-011 -6.11639e-027   
     length 0.672632   
     axis 3.9013e-015 90 90   XYZ
    dof rx rz
    limits (-90.0 90.0)
           (-45.0 45.0)
  end
  begin
     id 22 
     name lfingers
     direction 1 -4.48925e-011 -1.22426e-026   
     length 0.542293   
     axis 7.80276e-015 90 90   XYZ
    dof rx
    limits (0.0 90.0)
  end
  begin
     id 23
     name lthumb
     direction 0.707107 -6.3486e-011 0.707107   
     length 0.778628   
     axis -90 45 5.37419e-014   XYZ
    dof rx rz
    limits (-45.0 45.0)
           (-45.0 45.0)
  end
  begin
     id 24 
     name rclavicle
     direction -0.960732 0.273675 -0.0457849   
     length 3.52079  
     axis 0 0 0   XYZ 
    dof ry rz
    limits (-10.0 20.0)
           (-20.0 0.0)
  end
  begin
     id 25 
     name rhumerus
     direction -1 -4.48976e-011 -1.63613e-027  
     length 5.45222   
     axis 180 30 90   XYZ
    dof rx ry rz
    limits (-90.0 60.0)
           (-90.0 90.0)
           (-90.0 90.0)
  end
  begin
     id 26 
     name rradius
     direction -1 -4.48957e-011 -7.00033e-028   
     length 3.01284   
     axis 180 30 90   XYZ
    dof rx
    limits (-10.0 170.0)
  end
  begin
     id 27 
     name rwrist
     direction -1 -4.48983e-011 -3.05543e-027   
     length 1.50642   
     axis 8.48514e-016 -90 -90   XYZ
    dof ry
    limits (-180.0 0.0)
  end
  begin
     id 28
     name rhand
     direction -1 -4.48984e-011 -6.11072e-027   
     length 0.622296   
     axis 3.9013e-015 -90 -90   XYZ
    dof rx rz
    limits (-90.0 90.0)
           (-45.0 45.0)
  end
  begin
     id 29
     name rfingers
     direction -1 -4.48865e-011 -1.22637e-026   
     length 0.501711   
     axis 7.80276e-015 -90 -90   XYZ
    dof rx
    limits (0.0 90.0)
  end
  begin
     id 30
     name rthumb
     direction -0.707107 -6.34932e-011 0.707107   
     length 0.72036   
     axis -90 -45 -5.37419e-014   XYZ
    dof rx rz
    limits (-45.0 45.0)
           (-45.0 45.0)
  end
:hierarchy
  begin
    root lhipjoint rhipjoint lowerback
    lhipjoint lfemur
    lfemur ltibia
    ltibia lfoot
    lfoot ltoes
    rhipjoint rfemur
    rfemur rtibia
    rtibia rfoot
    rfoot rtoes
    lowerback upperback
    upperback thorax
    thorax lowerneck lclavicle rclavicle
    lowerneck upperneck
    upperneck head
    lclavicle lhumerus
    lhumerus lradius
    lradius lwrist
    lwrist lhand lthumb
    lhand lfingers
    rclavicle rhumerus
    rhumerus rradius
    rradius rwrist
    rwrist rhand rthumb
    rhand rfingers
  end

#!OML:ASF H:\Not Pregnant\Project 1\Capture day 1\Session 1\non-pregnant.ASF
:FULLY-SPECIFIED
:DEGREES
810
root 7.49848 16.2108 29.2319 175.704 -71.5647 -160.128
lowerback 3.85003 6.28129 3.57552
upperback -11.2568 8.5085 -0.418099
thorax -13.8699 3.46072 -3.67393
lowerneck 8.80765 -10.2729 -29.9244
upperneck 2.65014 -20.1713 36.8972
head 6.88656 -11.3163 17.1276
rclavicle 2.93207e-015 1.55052e-014
rhumerus -21.4766 -67.2563 15.9813
rradius 23.0044
rwrist 55.2885
rhand -1.81871 -6.3786
rfingers 7.12502
rthumb 23.8473 -34.9183
lclavicle 2.93207e-015 1.55052e-014
lhumerus -23.2247 19.5801 -6.02415
lradius 33.0242
lwrist 27.4484
lhand -15.6804 3.74525
lfingers 7.12502
lthumb 10.5084 33.4626
rfemur -140.357 -66.3792 103.91
rtibia 156.847
rfoot -6.16409 7.92908
rtoes 33.1787
lfemur -23.7211 40.212 -33.5533
ltibia 15.1006
lfoot 8.49405 -30.2219
ltoes 48.6596
811
root 7.50037 16.2102 29.2332 175.651 -71.5631 -160.085
lowerback 3.86191 6.28611 3.58185
upperback -11.2647 8.51641 -0.41785
thorax -13.8855 3.46273 -3.68026
lowerneck 8.81304 -10.2823 -29.9044
upperneck 2.68708 -20.19 36.8641
head 6.89514 -11.3237 17.104
rclavicle -1.37161e-014 -1.39149e-014
rhumerus -21.4805 -67.2546 16.008
rradius 23.0102
rwrist 55.2881
rhand -1.83771 -6.37604
rfingers 7.12502
rthumb 23.829 -34.9181
lclavicle -1.37161e-014 -1.39149e-014
lhumerus -23.2129 19.581 -6.00269
lradius 33.0235
lwrist 27.4178
lhand -15.6636 3.7316
lfingers 7.12502
lthumb 10.5247 33.4481
rfemur -140.551 -66.4756 104.154
rtibia 156.838
rfoot -6.19269 7.94077
rtoes 33.3151
lfemur -23.7415 40.2806 -33.5542
ltibia 15.1205
lfoot 8.60774 -30.2721
ltoes 48.7562
812
root 7.50247 16.2095 29.2348 175.622 -71.5586 -160.065
lowerback 3.87779 6.2897 3.5852
upperback -11.2744 8.52219 -0.420817
thorax -13.9059 3.46351 -3.68887
lowerneck 8.81629 -10.2879 -29.8788
upperneck 2.7225 -20.2022 36.8351
head 6.90115 -11.328 17.0828
rclavicle -2.62147e-014 -1.39149e-014
rhumerus -21.4788 -67.2414 16.0225
rradius 23.0228
rwrist 55.2859
rhand -1.8646 -6.37422
rfingers 7.12502
rthumb 23.8033 -34.9196
lclavicle -2.62147e-014 -1.39149e-014
lhumerus -23.2102 19.5774 -5.99191
lradius 33.025
lwrist 27.3777
lhand -15.6444 3.7093
lfingers 7.12502
lthumb 10.5432 33.4249
rfemur -140.76 -66.5628 104.403
rtibia 156.83
rfoot -6.21424 7.94457
rtoes 33.4299
lfemur -23.7643 40.3538 -33.5663
ltibia 15.1388
lfoot 8.72463 -30.3228
ltoes 48.8437
813
root 7.50476 16.2088 29.2366 175.633 -71.5514 -160.085
lowerback 3.89559 6.29107 3.5808
upperback -11.2851 8.52391 -0.425704
thorax -13.9298 3.46282 -3.69522
lowerneck 8.81443 -10.2885 -29.8562
upperneck 2.75762 -20.2067 36.8105
head 6.90616 -11.3284 17.0662
rclavicle -4.54223e-014 -2.8625e-014
rhumerus -21.4533 -67.2268 16.0133
rradius 23.0348
rwrist 55.2892
rhand -1.89815 -6.37494
rfingers 7.12502
rthumb 23.7711 -34.9246
lclavicle -4.54223e-014 -2.8625e-014
lhumerus -23.2252 19.5693 -5.99389
lradius 33.0292
lwrist 27.3322
lhand -15.6232 3.67858
lfingers 7.12502
lthumb 10.5637 33.3931
rfemur -140.992 -66.6369 104.656
rtibia 156.829
rfoot -6.22443 7.94139
rtoes 33.4903
lfemur -23.7908 40.4257 -33.5959
ltibia 15.1538
lfoot 8.83479 -30.3685
ltoes 48.9173
814
root 7.50724 16.2078 29.2388 175.697 -71.5456 -160.16
lowerback 3.91767 6.28857 3.5654
upperback -11.2981 8.51868 -0.436377
thorax -13.9604 3.45918 -3.70182
lowerneck 8.81267 -10.2817 -29.8317
upperneck 2.79269 -20.2018 36.7931
head 6.90844 -11.3248 17.0556
rclavicle -2.43511e-015 1.39149e-014
rhumerus -21.3844 -67.1425 15.9506
rradius 23.0462
rwrist 55.2306
rhand -1.93732 -6.38947
rfingers 7.12502
rthumb 23.7335 -34.944
lclavicle -2.43511e-015 1.39149e-014
lhumerus -23.2534 19.5462 -6.01149
lradius 33.0351
lwrist 27.2901
lhand -15.6048 3.64507
lfingers 7.12502
lthumb 10.5814 33.3587
rfemur -141.257 -66.7038 104.908
rtibia 156.838
rfoot -6.22503 7.93943
rtoes 33.4682
lfemur -23.8178 40.4966 -33.6491
ltibia 15.1644
lfoot 8.93734 -30.4143
ltoes 48.9861
815
root 7.50988 16.2067 29.2411 175.786 -71.5381 -160.262
lowerback 3.94322 6.2827 3.54492
upperback -11.3143 8.50792 -0.451113
thorax -13.9974 3.4527 -3.71007
lowerneck 8.81671 -10.2668 -29.8002
upperneck 2.82682 -20.1867 36.7807
head 6.90528 -11.3174 17.0495
rclavicle 2.04251e-014 5.96354e-015
rhumerus -21.3093 -67.0641 15.8713
rradius 23.0599
rwrist 55.1834
rhand -1.9802 -6.40691
rfingers 7.12502
rthumb 23.6924 -34.9667
lclavicle 2.04251e-014 5.96354e-015
lhumerus -23.293 19.5028 -6.0458
lradius 33.0443
lwrist 27.2594
lhand -15.5921 3.60813
lfingers 7.12502
lthumb 10.5936 33.3211
rfemur -141.527 -66.7701 105.15
rtibia 156.852
rfoot -6.2272 7.94572
rtoes 33.3963
lfemur -23.8419 40.5622 -33.7102
ltibia 15.1713
lfoot 9.0248 -30.4531
ltoes 49.034
816
root 7.51275 16.2057 29.2434 175.884 -71.528 -160.373
lowerback 3.97202 6.27727 3.52531
upperback -11.3288 8.49795 -0.467204
thorax -14.0341 3.4465 -3.72067
lowerneck 8.81609 -10.2511 -29.7696
upperneck 2.85652 -20.1692 36.7749
head 6.90208 -11.3087 17.0469
rclavicle 5.22804e-014 2.0276e-014
rhumerus -21.2271 -66.9616 15.7868
rradius 23.0645
rwrist 55.11
rhand -2.02808 -6.43127
rfingers 7.12502
rthumb 23.6465 -34.997
lclavicle 5.22804e-014 2.0276e-014
lhumerus -23.3359 19.4549 -6.08325
lradius 33.0547
lwrist 27.24
lhand -15.586 3.5791
lfingers 7.12502
lthumb 10.5996 33.2918
rfemur -141.796 -66.8359 105.384
rtibia 156.87
rfoot -6.23482 7.96317
rtoes 33.2977
lfemur -23.8618 40.6124 -33.7694
ltibia 15.1749
lfoot 9.09796 -30.4732
ltoes 49.0815
817
root 7.51576 16.2049 29.2457 175.969 -71.5124 -160.47
lowerback 4.0021 6.2752 3.51054
upperback -11.3404 8.49346 -0.482037
thorax -14.0672 3.44278 -3.73317
lowerneck 8.81055 -10.2384 -29.741
upperneck 2.87845 -20.154 36.7749
head 6.89978 -11.3009 17.0463
rclavicle -2.85256e-014 -1.15295e-014
rhumerus -21.1767 -66.895 15.7431
rradius 23.0608
rwrist 55.0672
rhand -2.07423 -6.44761
rfingers 7.12502
rthumb 23.6022 -35.0191
lclavicle -2.85256e-014 -1.15295e-014
lhumerus -23.373 19.4039 -6.11541
lradius 33.0625
lwrist 27.2352
lhand -15.5875 3.55847
lfingers 7.12502
lthumb 10.5981 33.2712
rfemur -142.042 -66.9039 105.606
rtibia 156.885
rfoot -6.25555 7.99317
rtoes 33.1923
lfemur -23.8794 40.6515 -33.8184
ltibia 15.1767
lfoot 9.16111 -30.4776
ltoes 49.1174
818
root 7.51886 16.2043 29.2479 176.035 -71.4939 -160.547
lowerback 4.03248 6.27662 3.50284
upperback -11.3474 8.49495 -0.494893
thorax -14.0938 3.44181 -3.7478
lowerneck 8.79709 -10.2308 -29.7166
upperneck 2.89208 -20.1433 36.7813
head 6.90011 -11.2949 17.0473
rclavicle -4.68138e-014 -1.66979e-014
rhumerus -21.1756 -66.888 15.7536
rradius 23.0645
rwrist 55.0731
rhand -2.10977 -6.44946
rfingers 7.12502
rthumb 23.5681 -35.0253
lclavicle -4.68138e-014 -1.66979e-014
lhumerus -23.4063 19.3651 -6.13951
lradius 33.0716
lwrist 27.2369
lhand -15.5975 3.55043
lfingers 7.12502
lthumb 10.5884 33.2637
rfemur -142.272 -66.9755 105.821
rtibia 156.896
rfoot -6.28893 8.03647
rtoes 33.1171
lfemur -23.8948 40.6772 -33.8549
ltibia 15.1784
lfoot 9.21725 -30.4642
ltoes 49.1503
